if (_typeface_js && _typeface_js.loadFace) _typeface_js.loadFace({"glyphs":{"0":{"ha":1128,"x_min":-87,"x_max":1128,"o":"m 521 87 l 868 434 l 521 781 l 174 434 l 521 87 l 521 87 m 521 -174 l -87 434 l 521 1042 l 1128 434 l 521 -174 l 521 -174 z "},"1":{"ha":434,"x_min":0,"x_max":434,"o":"m 87 -174 q 148 -148 122 -174 q 174 -87 174 -122 l 174 694 l 0 521 l 0 781 l 347 1128 l 434 1128 q 372 1103 397 1128 q 347 1042 347 1077 l 347 -87 q 372 -148 347 -122 q 434 -174 397 -174 l 87 -174 z "},"2":{"ha":868,"x_min":0,"x_max":781,"o":"m 0 -174 l 0 174 l 608 781 l 521 868 l 260 868 q 198 842 224 868 q 174 781 174 817 l 174 694 l 0 868 l 174 1042 l 608 1042 l 781 868 l 781 694 l 174 87 l 174 0 l 521 0 q 582 24 556 0 q 608 87 608 50 l 608 174 l 781 0 l 781 -174 l 0 -174 z "},"3":{"ha":955,"x_min":-87,"x_max":868,"o":"m 87 -260 l -43 0 l -43 0 l -87 85 l -87 85 l 87 0 l 521 0 l 608 87 l 347 347 l 217 347 l 174 260 l 43 521 l 42 521 l 0 606 l 0 606 l 87 521 l 347 521 l 608 781 l 521 868 l 130 868 l 130 781 l 0 1042 l 608 1042 l 868 781 l 521 434 l 868 87 l 608 -174 l 130 -174 l 87 -260 l 87 -260 z "},"4":{"ha":868,"x_min":-174,"x_max":781,"o":"m 434 521 l 434 694 l 260 521 l 434 521 m 347 -174 q 408 -148 382 -174 q 434 -87 434 -122 l 434 347 l -174 347 l 608 1128 l 608 521 l 694 521 q 755 545 730 521 q 781 608 781 571 l 781 260 q 755 321 781 296 q 694 347 730 347 l 608 347 l 608 -87 q 632 -148 608 -122 q 694 -174 658 -174 l 347 -174 z "},"5":{"ha":868,"x_min":0,"x_max":781,"o":"m 174 -174 l 0 0 l 174 174 l 174 87 q 198 24 174 50 q 260 0 224 0 l 521 0 l 608 87 l 0 694 l 0 1042 l 781 1042 l 781 868 l 608 694 l 608 781 q 582 842 608 817 q 521 868 556 868 l 174 868 l 174 781 l 781 174 l 781 0 l 608 -174 l 174 -174 z "},"6":{"ha":868,"x_min":0,"x_max":781,"o":"m 521 0 l 608 87 l 608 260 l 521 347 l 174 347 l 174 87 q 198 24 174 50 q 260 0 224 0 l 521 0 m 174 -174 l 0 0 l 0 868 l 174 1042 l 608 1042 l 781 868 l 608 694 l 608 781 q 582 842 608 817 q 521 868 556 868 l 260 868 l 174 781 l 174 521 l 608 521 l 781 347 l 781 0 l 608 -174 l 174 -174 z "},"7":{"ha":781,"x_min":-87,"x_max":781,"o":"m -43 -174 l 477 868 l 130 868 l 87 781 l -43 1042 l -43 1042 l -87 1127 l -87 1127 l 0 1042 l 781 1042 l 174 -174 l -43 -174 z "},"8":{"ha":868,"x_min":-87,"x_max":868,"o":"m 521 0 l 608 87 l 391 304 l 174 87 l 260 0 l 521 0 m 391 564 l 608 781 l 521 868 l 260 868 l 174 781 l 391 564 l 391 564 m 174 -174 l -87 87 l 260 434 l -87 781 l 174 1042 l 608 1042 l 868 781 l 521 434 l 868 87 l 608 -174 l 174 -174 z "},"9":{"ha":868,"x_min":0,"x_max":781,"o":"m 608 521 l 608 781 q 582 842 608 817 q 521 868 556 868 l 260 868 l 174 781 l 174 608 l 260 521 l 608 521 m 174 -174 l 0 0 l 174 174 l 174 87 q 198 24 174 50 q 260 0 224 0 l 521 0 l 608 87 l 608 347 l 174 347 l 0 521 l 0 868 l 174 1042 l 608 1042 l 781 868 l 781 0 l 608 -174 l 174 -174 z "}," ":{"ha":347,"x_min":0,"x_max":0,"o":""},"!":{"ha":260,"x_min":0,"x_max":174,"o":"m 0 0 l 0 174 l 174 174 l 174 0 l 0 0 m 0 260 l 0 1042 l 174 1042 l 174 260 l 0 260 z "},"\"":{"ha":347,"x_min":-87,"x_max":434,"o":"m 87 868 l -87 1042 l 434 1042 l 260 868 l 174 955 l 87 868 l 87 868 z "},"#":{"ha":1128,"x_min":0,"x_max":1042,"o":"m 564 347 l 651 521 l 521 521 l 434 347 l 564 347 m 43 0 l 130 174 l 0 174 l 0 347 l 217 347 l 304 521 l 174 521 l 174 694 l 391 694 l 477 868 l 694 868 l 608 694 l 738 694 l 825 868 l 1042 868 l 955 694 l 1042 694 l 1042 521 l 868 521 l 781 347 l 868 347 l 868 174 l 694 174 l 608 0 l 391 0 l 477 174 l 347 174 l 260 0 l 43 0 z "},"$":{"ha":694,"x_min":0,"x_max":608,"o":"m 174 -87 l 174 0 l 0 174 l 174 347 l 174 260 q 198 198 174 224 q 260 174 224 174 l 347 174 l 391 217 l 0 608 l 0 694 l 174 868 l 174 955 l 260 955 l 260 868 l 347 868 l 347 955 l 434 955 l 434 868 l 608 694 l 434 521 l 434 608 q 408 669 434 643 q 347 694 382 694 l 260 694 l 217 651 l 608 260 l 608 174 l 434 0 l 434 -87 l 347 -87 l 347 0 l 260 0 l 260 -87 l 174 -87 z "},"%":{"ha":955,"x_min":-174,"x_max":1042,"o":"m 694 -87 l 781 0 l 694 87 l 608 0 l 694 -87 l 694 -87 m 694 -347 l 347 0 l 694 347 l 1042 0 l 694 -347 l 694 -347 m 174 955 l 260 1042 l 174 1128 l 87 1042 l 174 955 l 174 955 m -43 -174 l 651 1215 l 868 1215 l 174 -174 l -43 -174 m 174 694 l -174 1042 l 174 1389 l 521 1042 l 174 694 l 174 694 z "},"&":{"ha":1042,"x_min":-87,"x_max":1042,"o":"m 521 0 l 521 347 l 174 347 l 521 0 l 521 0 m 868 -260 l 825 -174 l 434 -174 l -87 347 l -87 521 l 434 1042 l 781 1042 l 651 781 l 651 868 l 521 868 l 174 521 l 521 521 l 521 608 l 694 694 l 694 521 l 868 521 l 955 608 l 911 521 l 911 521 l 781 260 l 738 347 l 694 347 l 694 0 l 868 0 l 1042 87 l 998 0 l 998 0 l 868 -260 l 868 -260 z "},"'":{"ha":174,"x_min":-87,"x_max":260,"o":"m 87 868 l -87 1042 l 260 1042 l 87 868 l 87 868 z "},"(":{"ha":521,"x_min":0,"x_max":434,"o":"m 260 -174 l 0 87 l 0 781 l 260 1042 l 434 1042 l 434 868 l 347 868 l 174 694 l 174 174 l 347 0 l 434 0 l 434 -174 l 260 -174 z "},")":{"ha":521,"x_min":0,"x_max":434,"o":"m 0 -174 l 0 0 l 87 0 l 260 174 l 260 694 l 87 868 l 0 868 l 0 1042 l 174 1042 l 434 781 l 434 87 l 174 -174 l 0 -174 z "},"*":{"ha":434,"x_min":0,"x_max":347,"o":"m 174 521 l 87 608 l 0 608 l 65 738 l 0 868 l 87 868 l 174 955 l 260 868 l 347 868 l 282 738 l 347 608 l 260 608 l 174 521 l 174 521 z "},"+":{"ha":608,"x_min":0,"x_max":521,"o":"m 174 174 l 174 347 l 0 347 l 0 521 l 174 521 l 174 694 l 347 694 l 347 521 l 521 521 l 521 347 l 347 347 l 347 174 l 174 174 z "},",":{"ha":260,"x_min":0,"x_max":174,"o":"m 0 -174 l 0 174 l 174 174 l 174 0 l 0 -174 l 0 -174 z "},"-":{"ha":608,"x_min":0,"x_max":521,"o":"m 0 347 l 0 521 l 521 521 l 521 347 l 0 347 z "},".":{"ha":260,"x_min":0,"x_max":174,"o":"m 0 0 l 0 174 l 174 174 l 174 0 l 0 0 z "},"/":{"ha":781,"x_min":-43,"x_max":781,"o":"m -43 -174 l 564 1042 l 781 1042 l 174 -174 l -43 -174 z "},":":{"ha":260,"x_min":0,"x_max":174,"o":"m 0 174 l 0 347 l 174 347 l 174 174 l 0 174 m 0 521 l 0 694 l 174 694 l 174 521 l 0 521 z "},";":{"ha":260,"x_min":0,"x_max":174,"o":"m 0 0 l 0 347 l 174 347 l 174 174 l 0 0 l 0 0 m 0 521 l 0 694 l 174 694 l 174 521 l 0 521 z "},"<":{"ha":521,"x_min":0,"x_max":434,"o":"m 434 0 l 0 434 l 434 868 l 434 608 l 260 434 l 434 260 l 434 0 l 434 0 z "},"=":{"ha":608,"x_min":0,"x_max":521,"o":"m 0 174 l 0 347 l 521 347 l 521 174 l 0 174 m 0 521 l 0 694 l 521 694 l 521 521 l 0 521 z "},">":{"ha":521,"x_min":0,"x_max":434,"o":"m 0 0 l 0 260 l 174 434 l 0 608 l 0 868 l 434 434 l 0 0 l 0 0 z "},"?":{"ha":868,"x_min":0,"x_max":781,"o":"m 0 0 l 0 174 l 174 174 l 174 0 l 0 0 m 0 260 l 0 521 l 521 521 l 608 608 l 608 781 l 521 868 l 260 868 q 198 842 224 868 q 174 781 174 817 l 0 608 l 0 868 l 174 1042 l 608 1042 l 781 868 l 781 521 l 608 347 l 174 347 l 174 260 l 0 260 z "},"@":{"ha":1042,"x_min":-87,"x_max":1128,"o":"m 521 -174 l -87 434 l 521 1042 l 1128 434 l 955 260 l 434 260 l 434 434 l 868 434 l 521 781 l 174 434 l 521 87 l 521 -174 l 521 -174 z "},"A":{"ha":955,"x_min":-217,"x_max":1042,"o":"m 144 115 l 572 330 l 412 651 l 144 115 l 144 115 m -217 -174 l 289 838 l 87 1042 l 434 1042 l 1042 -174 l 694 -174 l 781 -87 l 659 156 l 0 -174 l -217 -174 z "},"B":{"ha":781,"x_min":-87,"x_max":781,"o":"m 434 0 l 521 87 l 174 434 l 521 781 l 434 868 l 174 868 l 174 0 l 434 0 m -87 -174 q -24 -148 -50 -174 q 0 -87 0 -122 l 0 955 q -24 1016 0 990 q -87 1042 -50 1042 l 174 1042 l 174 955 q 198 1016 174 990 q 260 1042 224 1042 l 521 1042 l 781 781 l 434 434 l 781 87 l 521 -174 l 260 -174 q 198 -148 224 -174 q 174 -87 174 -122 l 174 -174 l -87 -174 z "},"C":{"ha":868,"x_min":0,"x_max":955,"o":"m 521 -174 l 0 347 l 0 521 l 521 1042 l 868 1042 l 738 781 l 738 868 l 608 868 l 174 434 l 608 0 l 781 0 l 955 87 l 911 0 l 911 0 l 825 -174 l 521 -174 z "},"D":{"ha":868,"x_min":-347,"x_max":955,"o":"m -174 -347 l -347 -174 l 0 -174 l 174 0 l 0 0 q 61 24 35 0 q 87 87 87 50 l 87 521 q 61 582 87 556 q 0 608 35 608 l 260 868 l 260 87 l 694 521 l 347 868 l -347 868 l -87 1128 q -61 1066 -87 1092 q 0 1042 -35 1042 l 434 1042 l 955 521 l 87 -347 l -174 -347 z "},"E":{"ha":868,"x_min":-87,"x_max":868,"o":"m 694 -260 l 651 -174 l 434 -174 l -87 347 l -87 521 l 434 1042 l 781 1042 l 651 781 l 651 868 l 521 868 l 174 521 l 694 521 l 781 608 l 738 521 l 738 521 l 608 260 l 564 347 l 174 347 l 521 0 l 694 0 l 868 87 l 825 0 l 825 0 l 694 -260 l 694 -260 z "},"F":{"ha":694,"x_min":-87,"x_max":781,"o":"m -87 -174 q -24 -148 -50 -174 q 0 -87 0 -122 l 0 955 q -24 1016 0 990 q -87 1042 -50 1042 l 651 1042 l 738 868 l 738 868 l 781 781 l 608 868 l 174 868 l 174 521 l 608 521 l 694 608 l 651 521 l 651 521 l 521 260 l 477 347 l 174 347 l 174 -87 q 198 -148 174 -122 q 260 -174 224 -174 l -87 -174 z "},"G":{"ha":955,"x_min":0,"x_max":868,"o":"m 521 -174 l 0 347 l 0 521 l 521 1042 l 868 1042 l 738 781 l 738 868 l 608 868 l 174 434 l 608 0 l 694 0 l 694 347 l 521 347 l 347 521 l 868 521 l 868 -174 l 521 -174 z "},"H":{"ha":868,"x_min":-87,"x_max":868,"o":"m -87 -174 q -24 -148 -50 -174 q 0 -87 0 -122 l 0 868 q -24 929 0 903 q -87 955 -50 955 l 260 955 q 198 929 224 955 q 174 868 174 903 l 174 521 l 608 521 l 608 955 q 582 1016 608 990 q 521 1042 556 1042 l 868 1042 q 806 1016 831 1042 q 781 955 781 990 l 781 0 q 806 -61 781 -35 q 868 -87 831 -87 l 521 -87 q 582 -61 556 -87 q 608 0 608 -35 l 608 347 l 174 347 l 174 -87 q 198 -148 174 -122 q 260 -174 224 -174 l -87 -174 z "},"I":{"ha":260,"x_min":-87,"x_max":260,"o":"m -87 -174 q -24 -148 -50 -174 q 0 -87 0 -122 l 0 955 q -24 1016 0 990 q -87 1042 -50 1042 l 260 1042 q 198 1016 224 1042 q 174 955 174 990 l 174 -87 q 198 -148 174 -122 q 260 -174 224 -174 l -87 -174 z "},"J":{"ha":781,"x_min":-174,"x_max":781,"o":"m -87 -434 l -174 -260 l 521 434 l 521 868 l 174 868 l 0 781 l 42 868 l 43 868 l 130 1042 l 781 1042 q 719 1016 745 1042 q 694 955 694 990 l 694 347 l -87 -434 l -87 -434 z "},"K":{"ha":781,"x_min":-87,"x_max":955,"o":"m 521 -260 q 582 -235 556 -260 q 608 -174 608 -209 l 174 260 l 174 -174 l -87 -174 q -24 -148 -50 -174 q 0 -87 0 -122 l 0 868 q -24 929 0 903 q -87 955 -50 955 l 174 955 l 174 608 l 521 955 q 495 1016 521 990 q 434 1042 469 1042 l 868 1042 l 260 434 l 955 -260 l 521 -260 z "},"L":{"ha":694,"x_min":-87,"x_max":694,"o":"m -87 -174 q -24 -148 -50 -174 q 0 -87 0 -122 l 0 955 q -24 1016 0 990 q -87 1042 -50 1042 l 260 1042 q 198 1016 224 1042 q 174 955 174 990 l 174 0 l 521 0 l 694 87 l 651 0 l 651 0 l 564 -174 l -87 -174 z "},"M":{"ha":955,"x_min":-87,"x_max":955,"o":"m -87 -174 q -24 -148 -50 -174 q 0 -87 0 -122 l 0 955 q -24 1016 0 990 q -87 1042 -50 1042 l 304 1042 l 260 955 l 434 608 l 608 955 l 564 1042 l 955 1042 q 892 1016 918 1042 q 868 955 868 990 l 868 -87 q 892 -148 868 -122 q 955 -174 918 -174 l 608 -174 q 669 -148 643 -174 q 694 -87 694 -122 l 694 694 l 434 174 l 174 694 l 174 -87 q 198 -148 174 -122 q 260 -174 224 -174 l -87 -174 z "},"N":{"ha":868,"x_min":-87,"x_max":868,"o":"m 608 -174 l 174 694 l 174 0 q 198 -61 174 -35 q 260 -87 224 -87 l -87 -87 q -24 -61 -50 -87 q 0 0 0 -35 l 0 1128 l 174 1128 l 608 260 l 608 955 q 582 1016 608 990 q 521 1042 556 1042 l 868 1042 q 806 1016 831 1042 q 781 955 781 990 l 781 -174 l 608 -174 z "},"O":{"ha":1128,"x_min":-87,"x_max":1128,"o":"m 521 87 l 868 434 l 521 781 l 174 434 l 521 87 l 521 87 m 521 -174 l -87 434 l 521 1042 l 1128 434 l 521 -174 l 521 -174 z "},"P":{"ha":694,"x_min":-87,"x_max":781,"o":"m 260 521 l 521 781 l 434 868 l 174 868 l 174 521 l 260 521 m -87 -174 q -24 -148 -50 -174 q 0 -87 0 -122 l 0 955 q -24 1016 0 990 q -87 1042 -50 1042 l 174 1042 l 174 955 q 198 1016 174 990 q 260 1042 224 1042 l 521 1042 l 781 781 l 347 347 l 174 347 l 174 -87 q 198 -148 174 -122 q 260 -174 224 -174 l -87 -174 z "},"Q":{"ha":1128,"x_min":-87,"x_max":1128,"o":"m 521 87 l 868 434 l 521 781 l 174 434 l 521 87 l 521 87 m 347 -434 l 434 -347 l 434 -87 l -87 434 l 521 1042 l 1128 434 l 608 -87 l 608 -217 l 694 -260 l 434 -391 l 434 -391 l 347 -434 l 347 -434 z "},"R":{"ha":781,"x_min":-87,"x_max":1042,"o":"m 174 434 l 521 781 l 434 868 l 174 868 l 174 434 l 174 434 m 955 -434 l 174 347 l 174 -87 q 198 -148 174 -122 q 260 -174 224 -174 l -87 -174 q -24 -148 -50 -174 q 0 -87 0 -122 l 0 955 q -24 1016 0 990 q -87 1042 -50 1042 l 174 1042 l 174 955 q 198 1016 174 990 q 260 1042 224 1042 l 521 1042 l 781 781 l 391 391 l 1042 -260 l 955 -434 l 955 -434 z "},"S":{"ha":868,"x_min":0,"x_max":781,"o":"m 174 -174 l 0 0 l 174 174 l 174 87 q 198 24 174 50 q 260 0 224 0 l 521 0 l 608 87 l 0 694 l 0 868 l 174 1042 l 608 1042 l 781 868 l 608 694 l 608 781 q 582 842 608 817 q 521 868 556 868 l 260 868 l 174 781 l 781 174 l 781 0 l 608 -174 l 174 -174 z "},"T":{"ha":781,"x_min":-87,"x_max":781,"o":"m 174 -174 q 235 -148 209 -174 q 260 -87 260 -122 l 260 868 l 87 868 l -87 781 l -43 868 l -43 868 l 43 1042 l 651 1042 l 738 868 l 738 868 l 781 781 l 608 868 l 434 868 l 434 -87 q 458 -148 434 -122 q 521 -174 484 -174 l 174 -174 z "},"U":{"ha":868,"x_min":-87,"x_max":868,"o":"m 260 -174 l 0 87 l 0 955 q -24 1016 0 990 q -87 1042 -50 1042 l 174 1042 l 174 174 l 347 0 l 608 0 l 608 1042 l 868 1042 q 806 1016 831 1042 q 781 955 781 990 l 781 -174 l 260 -174 z "},"V":{"ha":1042,"x_min":-87,"x_max":1128,"o":"m 521 -174 l -87 1042 l 260 1042 q 198 1016 224 1042 q 174 955 174 990 l 521 260 l 868 955 q 842 1016 868 990 q 781 1042 817 1042 l 1128 1042 l 521 -174 l 521 -174 z "},"W":{"ha":955,"x_min":-87,"x_max":955,"o":"m -87 -174 q -24 -148 -50 -174 q 0 -87 0 -122 l 0 955 q -24 1016 0 990 q -87 1042 -50 1042 l 260 1042 q 198 1016 224 1042 q 174 955 174 990 l 174 174 l 434 694 l 694 174 l 694 955 q 669 1016 694 990 q 608 1042 643 1042 l 955 1042 q 892 1016 918 1042 q 868 955 868 990 l 868 -87 q 892 -148 868 -122 q 955 -174 918 -174 l 564 -174 l 608 -87 l 434 260 l 260 -87 l 304 -174 l -87 -174 z "},"X":{"ha":694,"x_min":-87,"x_max":781,"o":"m -87 -174 l 239 477 l -43 1042 l 174 1042 l 347 694 l 521 1042 l 738 1042 l 456 477 l 781 -174 l 434 -174 q 495 -148 469 -174 q 521 -87 521 -122 l 347 260 l 174 -87 q 198 -148 174 -122 q 260 -174 224 -174 l -87 -174 z "},"Y":{"ha":781,"x_min":-87,"x_max":781,"o":"m 174 -174 q 235 -148 209 -174 q 260 -87 260 -122 l 260 347 l -87 1042 l 260 1042 q 198 1016 224 1042 q 174 955 174 990 l 347 608 l 521 955 q 495 1016 521 990 q 434 1042 469 1042 l 781 1042 l 434 347 l 434 -87 q 458 -148 434 -122 q 521 -174 484 -174 l 174 -174 z "},"Z":{"ha":781,"x_min":-87,"x_max":868,"o":"m 694 -260 l 651 -174 l -43 -174 l 477 868 l 130 868 l 87 781 l -43 1042 l -43 1042 l -87 1127 l -87 1127 l 0 1042 l 781 1042 l 260 0 l 781 0 l 868 87 l 825 0 l 825 0 l 694 -260 l 694 -260 z "},"[":{"ha":521,"x_min":0,"x_max":434,"o":"m 0 -174 l 0 1042 l 434 1042 l 434 868 l 174 868 l 174 0 l 434 0 l 434 -174 l 0 -174 z "},"\\":{"ha":781,"x_min":-87,"x_max":738,"o":"m 521 -174 l -87 1042 l 130 1042 l 738 -174 l 521 -174 z "},"]":{"ha":521,"x_min":0,"x_max":434,"o":"m 0 -174 l 0 0 l 260 0 l 260 868 l 0 868 l 0 1042 l 434 1042 l 434 -174 l 0 -174 z "},"^":{"ha":781,"x_min":0,"x_max":694,"o":"m 0 955 l 347 1302 l 694 955 l 434 955 l 347 1042 l 260 955 l 0 955 z "},"_":{"ha":694,"x_min":0,"x_max":608,"o":"m 0 0 l 0 174 l 608 174 l 608 0 l 0 0 z "},"`":{"ha":174,"x_min":-87,"x_max":260,"o":"m 87 868 l -87 1042 l 260 1042 l 87 868 l 87 868 z "},"a":{"ha":694,"x_min":-130,"x_max":781,"o":"m 231 289 l 381 363 l 326 477 l 231 289 l 231 289 m -130 0 l 202 665 l 0 868 l 347 868 l 781 0 l 434 0 l 521 87 l 468 190 l 87 0 l -130 0 z "},"b":{"ha":694,"x_min":-87,"x_max":694,"o":"m 434 174 l 174 434 l 434 694 l 174 694 l 174 174 l 434 174 m -87 0 q -24 24 -50 0 q 0 87 0 50 l 0 781 q -24 842 0 817 q -87 868 -50 868 l 174 868 l 174 781 q 198 842 174 817 q 260 868 224 868 l 521 868 l 694 694 l 434 434 l 694 174 l 521 0 l 260 0 q 198 24 224 0 q 174 87 174 50 l 174 0 l -87 0 z "},"c":{"ha":781,"x_min":0,"x_max":781,"o":"m 347 0 l 0 347 l 0 521 l 347 868 l 694 868 l 564 608 l 564 694 l 434 694 l 174 434 l 434 174 l 608 174 l 781 260 l 738 174 l 738 174 l 651 0 l 347 0 z "},"d":{"ha":694,"x_min":-87,"x_max":694,"o":"m 260 174 l 521 434 l 260 694 l 174 694 l 174 174 l 260 174 m -87 0 q -24 24 -50 0 q 0 87 0 50 l 0 781 q -24 842 0 817 q -87 868 -50 868 l 347 868 l 694 521 l 694 347 l 347 0 l -87 0 z "},"e":{"ha":694,"x_min":-87,"x_max":694,"o":"m 521 -87 l 477 0 l 260 0 l -87 347 l -87 521 l 260 868 l 608 868 l 477 608 l 477 694 l 347 694 l 174 521 l 521 521 l 608 608 l 564 521 l 564 521 l 434 260 l 391 347 l 174 347 l 347 174 l 521 174 l 694 260 l 651 174 l 651 174 l 521 -87 l 521 -87 z "},"f":{"ha":608,"x_min":-87,"x_max":608,"o":"m -87 0 q -24 24 -50 0 q 0 87 0 50 l 0 781 q -24 842 0 817 q -87 868 -50 868 l 477 868 l 564 694 l 564 694 l 608 608 l 434 694 l 174 694 l 174 521 l 434 521 l 521 608 l 477 521 l 477 521 l 347 260 l 304 347 l 174 347 l 174 87 q 198 24 174 50 q 260 0 224 0 l -87 0 z "},"g":{"ha":781,"x_min":0,"x_max":694,"o":"m 347 0 l 0 347 l 0 521 l 347 868 l 694 868 l 564 608 l 564 694 l 434 694 l 174 434 l 434 174 l 521 174 l 521 347 l 347 521 l 694 521 l 694 0 l 347 0 z "},"h":{"ha":694,"x_min":-87,"x_max":694,"o":"m -87 0 q -24 24 -50 0 q 0 87 0 50 l 0 781 q -24 842 0 817 q -87 868 -50 868 l 260 868 q 198 842 224 868 q 174 781 174 817 l 174 521 l 434 521 l 434 781 q 408 842 434 817 q 347 868 382 868 l 694 868 q 632 842 658 868 q 608 781 608 817 l 608 87 q 632 24 608 50 q 694 0 658 0 l 347 0 q 408 24 382 0 q 434 87 434 50 l 434 347 l 174 347 l 174 87 q 198 24 174 50 q 260 0 224 0 l -87 0 z "},"i":{"ha":260,"x_min":-87,"x_max":260,"o":"m -87 0 q -24 24 -50 0 q 0 87 0 50 l 0 781 q -24 842 0 817 q -87 868 -50 868 l 260 868 q 198 842 224 868 q 174 781 174 817 l 174 87 q 198 24 174 50 q 260 0 224 0 l -87 0 z "},"j":{"ha":608,"x_min":-174,"x_max":608,"o":"m -87 -260 l -174 -87 l 347 434 l 347 694 l 174 694 l 0 608 l 42 694 l 43 694 l 130 868 l 608 868 q 545 842 571 868 q 521 781 521 817 l 521 347 l -87 -260 l -87 -260 z "},"k":{"ha":694,"x_min":-87,"x_max":694,"o":"m -87 0 q -24 24 -50 0 q 0 87 0 50 l 0 781 q -24 842 0 817 q -87 868 -50 868 l 174 868 l 174 608 l 347 781 q 321 842 347 817 q 260 868 296 868 l 694 868 l 260 434 l 694 0 l 260 0 q 321 24 296 0 q 347 87 347 50 l 174 260 l 174 0 l -87 0 z "},"l":{"ha":521,"x_min":-87,"x_max":521,"o":"m -87 0 q -24 24 -50 0 q 0 87 0 50 l 0 781 q -24 842 0 817 q -87 868 -50 868 l 260 868 q 198 842 224 868 q 174 781 174 817 l 174 174 l 347 174 l 521 260 l 477 174 l 477 174 l 391 0 l -87 0 z "},"m":{"ha":781,"x_min":-87,"x_max":781,"o":"m -87 0 q -24 24 -50 0 q 0 87 0 50 l 0 781 q -24 842 0 817 q -87 868 -50 868 l 304 868 l 260 781 l 347 608 l 434 781 l 391 868 l 781 868 q 719 842 745 868 q 694 781 694 817 l 694 87 q 719 24 694 50 q 781 0 745 0 l 434 0 q 495 24 469 0 q 521 87 521 50 l 521 521 l 347 174 l 174 521 l 174 87 q 198 24 174 50 q 260 0 224 0 l -87 0 z "},"n":{"ha":694,"x_min":-87,"x_max":694,"o":"m -87 0 q -24 24 -50 0 q 0 87 0 50 l 0 868 l 217 868 l 434 434 l 434 781 q 408 842 434 817 q 347 868 382 868 l 694 868 q 632 842 658 868 q 608 781 608 817 l 608 0 l 434 0 l 174 521 l 174 87 q 198 24 174 50 q 260 0 224 0 l -87 0 z "},"o":{"ha":781,"x_min":-87,"x_max":781,"o":"m 347 260 l 521 434 l 347 608 l 174 434 l 347 260 l 347 260 m 347 0 l -87 434 l 347 868 l 781 434 l 347 0 l 347 0 z "},"p":{"ha":694,"x_min":-87,"x_max":694,"o":"m 260 521 l 434 694 l 174 694 l 174 521 l 260 521 m -87 0 q -24 24 -50 0 q 0 87 0 50 l 0 781 q -24 842 0 817 q -87 868 -50 868 l 174 868 l 174 781 q 198 842 174 817 q 260 868 224 868 l 521 868 l 694 694 l 347 347 l 174 347 l 174 87 q 198 24 174 50 q 260 0 224 0 l -87 0 z "},"q":{"ha":781,"x_min":-87,"x_max":781,"o":"m 347 260 l 521 434 l 347 608 l 174 434 l 347 260 l 347 260 m 174 -174 l 260 -87 l 260 87 l -87 434 l 347 868 l 781 434 l 434 87 l 434 43 l 521 0 l 260 -130 l 260 -130 l 174 -174 l 174 -174 z "},"r":{"ha":781,"x_min":-87,"x_max":868,"o":"m 174 434 l 434 694 l 174 694 l 174 434 l 174 434 m 781 -260 l 174 347 l 174 87 q 198 24 174 50 q 260 0 224 0 l -87 0 q -24 24 -50 0 q 0 87 0 50 l 0 781 q -24 842 0 817 q -87 868 -50 868 l 174 868 l 174 781 q 198 842 174 817 q 260 868 224 868 l 521 868 l 694 694 l 391 391 l 868 -87 l 781 -260 l 781 -260 z "},"s":{"ha":694,"x_min":0,"x_max":608,"o":"m 174 0 l 0 174 l 174 347 l 174 260 q 198 198 174 224 q 260 174 224 174 l 347 174 l 391 217 l 0 608 l 0 694 l 174 868 l 434 868 l 608 694 l 434 521 l 434 608 q 408 669 434 643 q 347 694 382 694 l 260 694 l 217 651 l 608 260 l 608 174 l 434 0 l 174 0 z "},"t":{"ha":608,"x_min":-87,"x_max":608,"o":"m 87 0 q 148 24 122 0 q 174 87 174 50 l 174 694 l 87 694 l -87 608 l -43 694 l -43 694 l 43 868 l 477 868 l 564 694 l 564 694 l 608 608 l 434 694 l 347 694 l 347 87 q 372 24 347 50 q 434 0 397 0 l 87 0 z "},"u":{"ha":694,"x_min":-87,"x_max":694,"o":"m 260 0 l 0 260 l 0 781 q -24 842 0 817 q -87 868 -50 868 l 174 868 l 174 347 l 347 174 l 434 174 l 434 868 l 694 868 q 632 842 658 868 q 608 781 608 817 l 608 0 l 260 0 z "},"v":{"ha":781,"x_min":-87,"x_max":781,"o":"m 347 0 l -87 868 l 260 868 q 198 842 224 868 q 174 781 174 817 l 347 434 l 521 781 q 495 842 521 817 q 434 868 469 868 l 781 868 l 347 0 l 347 0 z "},"w":{"ha":781,"x_min":-87,"x_max":781,"o":"m -87 0 q -24 24 -50 0 q 0 87 0 50 l 0 781 q -24 842 0 817 q -87 868 -50 868 l 260 868 q 198 842 224 868 q 174 781 174 817 l 174 347 l 347 694 l 521 347 l 521 781 q 495 842 521 817 q 434 868 469 868 l 781 868 q 719 842 745 868 q 694 781 694 817 l 694 87 q 719 24 694 50 q 781 0 745 0 l 391 0 l 434 87 l 347 260 l 260 87 l 304 0 l -87 0 z "},"x":{"ha":608,"x_min":-87,"x_max":608,"o":"m -87 0 l 152 477 l -43 868 l 174 868 l 260 694 l 347 868 l 564 868 l 369 477 l 608 0 l 260 0 q 321 24 296 0 q 347 87 347 50 l 260 260 l 174 87 q 198 24 174 50 q 260 0 224 0 l -87 0 z "},"y":{"ha":608,"x_min":-87,"x_max":608,"o":"m 87 0 q 148 24 122 0 q 174 87 174 50 l 174 347 l -87 868 l 260 868 q 198 842 224 868 q 174 781 174 817 l 260 608 l 347 781 q 321 842 347 817 q 260 868 296 868 l 608 868 l 347 347 l 347 87 q 372 24 347 50 q 434 0 397 0 l 87 0 z "},"z":{"ha":694,"x_min":-87,"x_max":694,"o":"m 521 -87 l 477 0 l -43 0 l 304 694 l 130 694 l 87 608 l -43 868 l -43 868 l -87 955 l 0 868 l 608 868 l 260 174 l 608 174 l 694 260 l 651 174 l 651 174 l 521 -87 l 521 -87 z "},"{":{"ha":694,"x_min":0,"x_max":608,"o":"m 434 -174 l 174 87 l 174 347 l 0 347 l 174 521 l 174 781 l 434 1042 l 608 1042 l 608 868 l 521 868 l 347 694 l 347 174 l 521 0 l 608 0 l 608 -174 l 434 -174 z "},"|":{"ha":260,"x_min":0,"x_max":174,"o":"m 0 -174 l 0 1042 l 174 1042 l 174 -174 l 0 -174 z "},"}":{"ha":694,"x_min":0,"x_max":608,"o":"m 0 -174 l 0 0 l 87 0 l 260 174 l 260 694 l 87 868 l 0 868 l 0 1042 l 174 1042 l 434 781 l 434 521 l 608 521 l 434 347 l 434 87 l 174 -174 l 0 -174 z "},"~":{"ha":608,"x_min":0,"x_max":521,"o":"m 0 347 l 0 521 l 521 521 l 521 347 l 0 347 z "},"‘":{"ha":174,"x_min":-87,"x_max":260,"o":"m 87 868 l -87 1042 l 260 1042 l 87 868 l 87 868 z "},"’":{"ha":174,"x_min":-87,"x_max":260,"o":"m 87 868 l -87 1042 l 260 1042 l 87 868 l 87 868 z "},"“":{"ha":347,"x_min":-87,"x_max":434,"o":"m 87 868 l -87 1042 l 434 1042 l 260 868 l 174 955 l 87 868 l 87 868 z "},"”":{"ha":347,"x_min":-87,"x_max":434,"o":"m 87 868 l -87 1042 l 434 1042 l 260 868 l 174 955 l 87 868 l 87 868 z "}}}
